<svg xmlns="http://www.w3.org/2000/svg" viewBox="0 0 800 600" role="img" aria-hidden="true">
<defs>
  <linearGradient id="g" x1="0%" y1="0%" x2="100%" y2="100%">
    <stop offset="0%" stop-color="#4E2278"/>
    <stop offset="52%" stop-color="#5B2A86"/>
    <stop offset="100%" stop-color="#8A5CC4"/>
  </linearGradient>
  <radialGradient id="glow1" cx="22%" cy="18%" r="55%">
    <stop offset="0%" stop-color="#FFFFFF" stop-opacity="0.30"/>
    <stop offset="100%" stop-color="#FFFFFF" stop-opacity="0"/>
  </radialGradient>
  <radialGradient id="glow2" cx="85%" cy="88%" r="55%">
    <stop offset="0%" stop-color="#7C4DFF" stop-opacity="0.35"/>
    <stop offset="100%" stop-color="#7C4DFF" stop-opacity="0"/>
  </radialGradient>
  <filter id="soft" x="-40%" y="-40%" width="180%" height="180%">
    <feGaussianBlur stdDeviation="26"/>
  </filter>
  <filter id="grain">
    <feTurbulence type="fractalNoise" baseFrequency="0.85" numOctaves="2" stitchTiles="stitch" result="n"/>
    <feColorMatrix in="n" type="matrix" values="0 0 0 0 1  0 0 0 0 1  0 0 0 0 1  0 0 0 0.02 0"/>
  </filter>
</defs>
<rect width="800" height="600" fill="url(#g)"/>
<rect width="800" height="600" fill="url(#glow1)"/>
<rect width="800" height="600" fill="url(#glow2)"/>
<g fill="#FFFFFF" fill-opacity="0.16"><rect x="230" y="230" width="120" height="90" rx="14"/><rect x="380" y="180" width="120" height="90" rx="14"/><rect x="380" y="300" width="120" height="90" rx="14"/><rect x="530" y="230" width="120" height="90" rx="14"/></g><g stroke="#FFFFFF" stroke-opacity="0.3" stroke-width="2"><line x1="350" y1="275" x2="380" y2="225"/><line x1="350" y1="275" x2="380" y2="345"/><line x1="500" y1="225" x2="530" y2="275"/><line x1="500" y1="345" x2="530" y2="275"/></g><rect width="800" height="600" filter="url(#grain)"/>
<g opacity="0.55" transform="translate(736,548)">
  <rect x="0" y="0" width="20" height="20" rx="6" fill="#FFFFFF" fill-opacity="0.16"/>
  <circle cx="10" cy="10" r="4.4" fill="#FFFFFF"/>
</g>
</svg>